<svg xmlns="http://www.w3.org/2000/svg" xmlns:xlink="http://www.w3.org/1999/xlink" width="14" height="9" viewBox="0 0 14 9">
    <defs>
        <filter id="prefix__a" width="1033.1%" height="1840.8%" x="-466.6%" y="-870.4%" filterUnits="objectBoundingBox">
            <feOffset in="SourceAlpha" result="shadowOffsetOuter1"/>
            <feGaussianBlur in="shadowOffsetOuter1" result="shadowBlurOuter1" stdDeviation="20"/>
            <feColorMatrix in="shadowBlurOuter1" values="0 0 0 0 0.269474638 0 0 0 0 0.166274334 0 0 0 0 0.035080997 0 0 0 1 0"/>
        </filter>
        <path id="prefix__b" d="M7.475 7.894c.118 0 .22-.043.304-.127l5.954-5.955c.085-.084.127-.186.127-.304 0-.119-.042-.22-.127-.305-.084-.085-.186-.127-.304-.127-.119 0-.22.042-.305.127l-5.65 5.65-5.738-5.739C1.652 1.038 1.55 1 1.432 1c-.119 0-.22.038-.305.114-.042.043-.074.091-.095.146C1.01 1.315 1 1.368 1 1.42c0 .06.01.116.032.171.02.055.053.104.095.146l6.043 6.03c.085.085.186.128.305.128z"/>
    </defs>
    <g fill="none">
        <use fill="#000" filter="url(#prefix__a)" xlink:href="#prefix__b"/>
        <use fill="#FFF" xlink:href="#prefix__b"/>
    </g>
</svg>
