<svg xmlns="http://www.w3.org/2000/svg" width="18" height="18" viewBox="0 0 18 18">
    <path fill="#FFF" stroke="#FFF" stroke-width=".5" d="M9 17c1.448 0 2.786-.357 4.016-1.07 1.229-.714 2.2-1.685 2.914-2.914C16.643 11.786 17 10.448 17 9s-.357-2.786-1.07-4.016c-.714-1.229-1.685-2.198-2.914-2.906C11.786 1.36 10.448 1 9 1s-2.786.357-4.016 1.07c-1.229.714-2.2 1.685-2.914 2.914C1.357 6.214 1 7.552 1 9s.357 2.786 1.07 4.016c.714 1.229 1.685 2.2 2.914 2.914C6.214 16.643 7.552 17 9 17zm0-1.125c-.938 0-1.828-.177-2.672-.531-.823-.354-1.552-.85-2.187-1.485-.636-.635-1.125-1.364-1.47-2.187-.364-.844-.546-1.735-.546-2.672 0-.938.177-1.828.531-2.672.354-.823.85-1.552 1.485-2.187.635-.636 1.364-1.125 2.187-1.47.844-.364 1.734-.546 2.672-.546.938 0 1.828.177 2.672.531.823.354 1.552.85 2.187 1.485.636.635 1.125 1.364 1.47 2.187.364.844.546 1.734.546 2.672 0 .938-.177 1.828-.531 2.672-.354.823-.85 1.552-1.485 2.187-.635.636-1.364 1.125-2.187 1.47-.844.364-1.735.546-2.672.546zM12.453 10c.156 0 .29-.055.399-.164.109-.11.164-.242.164-.399 0-.156-.055-.289-.164-.398-.11-.11-.243-.164-.399-.164h-2.89v-3.75c0-.156-.055-.29-.165-.398-.109-.11-.242-.165-.398-.165-.156 0-.29.055-.398.165-.11.109-.165.242-.165.398v3.75c0 .313.11.578.329.797.218.219.484.328.796.328h2.891z"/>
</svg>
