<svg xmlns="http://www.w3.org/2000/svg" width="60" height="60" viewBox="0 0 60 60">
    <g fill="none" fill-rule="evenodd" transform="translate(1 1)">
        <circle cx="29" cy="29" r="29" stroke="#979797"/>
        <path fill="#FFF" fill-rule="nonzero" d="M35.141 36c.24 0 .442-.083.609-.25.167-.167.25-.37.25-.609s-.087-.438-.26-.598L30.216 29l5.522-5.543c.174-.16.261-.36.261-.598 0-.24-.083-.442-.25-.609-.167-.167-.37-.25-.609-.25s-.438.087-.598.26L29 27.784l-5.543-5.522c-.16-.174-.36-.261-.598-.261-.24 0-.442.083-.609.25-.167.167-.25.37-.25.609s.087.438.26.598L27.784 29l-5.522 5.543c-.174.16-.261.36-.261.598 0 .24.083.442.25.609.167.167.37.25.609.25s.438-.087.598-.26L29 30.195l5.543 5.543c.16.174.36.261.598.261z"/>
    </g>
</svg>
