<svg xmlns="http://www.w3.org/2000/svg" width="14" height="14" viewBox="0 0 14 14">
    <path fill="#FFF" fill-rule="evenodd" d="M7 0c3.866 0 7 3.134 7 7s-3.134 7-7 7-7-3.134-7-7 3.134-7 7-7zm.679 3.294H6.443v.89c-.415.085-.75.253-1.008.504-.276.27-.415.596-.415.978 0 .448.178.817.534 1.107.31.25.774.448 1.393.593.468.112.8.263.998.454.159.145.238.33.238.554 0 .184-.073.342-.218.474-.197.171-.497.257-.9.257-.401 0-.707-.086-.918-.257-.154-.12-.248-.283-.283-.486l-.014-.127h-.909c.027.435.185.79.475 1.068.22.208.494.362.823.46l.204.053v.89H7.68v-.89c.434-.085.777-.243 1.027-.474.284-.257.425-.586.425-.988 0-.37-.099-.682-.296-.939-.165-.21-.405-.392-.722-.543-.23-.112-.537-.218-.919-.317-.454-.118-.774-.247-.958-.385-.185-.138-.277-.306-.277-.504 0-.23.099-.417.297-.558.197-.142.467-.213.81-.213.624 0 .967.25 1.028.75l.01.12h.909c-.013-.37-.129-.692-.346-.969-.203-.254-.475-.435-.813-.544l-.175-.049v-.909z"/>
</svg>
