<svg xmlns="http://www.w3.org/2000/svg" width="14" height="19" viewBox="0 0 14 19">
    <path fill="#FFF" fill-rule="evenodd" d="M7.073 0c1.094 0 2.072.188 2.935.565.863.377 1.589.89 2.178 1.54.59.65 1.04 1.407 1.35 2.27.31.863.464 1.774.464 2.734 0 .973-.191 1.966-.574 2.98-.383 1.016-.866 2.012-1.45 2.99-.583.979-1.215 1.905-1.895 2.78-.68.875-1.319 1.653-1.914 2.334 0 .012-.091.094-.274.246-.182.152-.395.228-.638.228h-.054c-.256 0-.471-.076-.648-.228-.176-.152-.264-.234-.264-.246-.632-.73-1.315-1.525-2.05-2.388-.736-.863-1.417-1.772-2.042-2.726-.626-.954-1.149-1.935-1.568-2.944C.209 9.127 0 8.118 0 7.11c0-.96.188-1.871.565-2.734.377-.863.887-1.62 1.531-2.27.644-.65 1.395-1.163 2.252-1.54C5.204.188 6.113 0 7.073 0zm.219 17.409c.923-1.057 1.731-2.066 2.424-3.026.693-.96 1.27-1.869 1.732-2.725.462-.857.808-1.665 1.039-2.425.23-.76.346-1.467.346-2.124 0-.74-.112-1.467-.337-2.178-.225-.711-.574-1.346-1.048-1.905-.474-.559-1.073-1.009-1.796-1.349-.723-.34-1.583-.51-2.58-.51-.801 0-1.56.158-2.278.474-.717.316-1.343.744-1.877 1.285-.535.54-.96 1.173-1.276 1.896-.316.723-.474 1.485-.474 2.287 0 .863.182 1.738.547 2.625.364.888.826 1.76 1.385 2.616.559.857 1.173 1.683 1.841 2.48.669.795 1.3 1.54 1.896 2.232l.31.347.073.073c.012-.012.027-.025.045-.037.019-.012.028-.024.028-.036zm-.274-13.89c.972 0 1.799.343 2.48 1.03.68.686 1.02 1.51 1.02 2.47 0 .971-.34 1.798-1.02 2.478-.681.681-1.508 1.021-2.48 1.021-.96 0-1.783-.34-2.47-1.02-.686-.681-1.03-1.508-1.03-2.48 0-.96.344-1.783 1.03-2.47.687-.686 1.51-1.03 2.47-1.03zm0 5.833c.644 0 1.191-.231 1.64-.693.45-.462.675-1.015.675-1.659 0-.644-.228-1.194-.683-1.65-.456-.455-1.006-.683-1.65-.683-.644 0-1.194.228-1.65.683-.455.456-.683 1.006-.683 1.65 0 .644.23 1.197.692 1.659.462.462 1.015.693 1.66.693z"/>
</svg>
