<svg xmlns="http://www.w3.org/2000/svg" width="13" height="21" viewBox="0 0 13 21">
    <path fill="#FFF" fill-rule="evenodd" d="M7.492 18.6c0-.71-.582-1.292-1.292-1.292-.71 0-1.292.582-1.292 1.292 0 .71.582 1.292 1.292 1.292.71 0 1.292-.582 1.292-1.292zm3.358-2.583V4.65c0-.274-.242-.517-.517-.517H2.067c-.275 0-.517.243-.517.517v11.367c0 .274.242.516.517.516h8.266c.275 0 .517-.242.517-.516zM7.75 2.325c0-.145-.113-.258-.258-.258H4.908c-.145 0-.258.113-.258.258 0 .145.113.258.258.258h2.584c.145 0 .258-.113.258-.258zm4.65-.258V18.6c0 1.13-.936 2.067-2.067 2.067H2.067C.937 20.667 0 19.73 0 18.6V2.067C0 .937.936 0 2.067 0h8.266c1.13 0 2.067.936 2.067 2.067z"/>
</svg>
