<svg xmlns="http://www.w3.org/2000/svg" width="50" height="50" viewBox="0 0 50 50">
    <path fill="#FFF" d="M25 50c4.567 0 8.794-1.142 12.68-3.425 3.766-2.164 6.731-5.129 8.895-8.895C48.858 33.794 50 29.567 50 25s-1.142-8.794-3.425-12.68c-2.164-3.766-5.129-6.731-8.895-8.895C33.794 1.142 29.567 0 25 0c-4.527 0-8.734 1.142-12.62 3.425C8.614 5.63 5.629 8.614 3.425 12.38 1.142 16.266 0 20.473 0 25c0 4.527 1.142 8.734 3.425 12.62 2.164 3.766 5.129 6.751 8.895 8.955C16.206 48.858 20.433 50 25 50zm0-4.928c-3.606 0-6.971-.921-10.096-2.764-3.045-1.763-5.449-4.167-7.212-7.212C5.85 31.971 4.928 28.606 4.928 25s.921-6.971 2.764-10.096c1.763-3.045 4.167-5.449 7.212-7.212C18.029 5.85 21.394 4.928 25 4.928s6.971.921 10.096 2.764c3.045 1.763 5.449 4.167 7.212 7.212 1.843 3.125 2.764 6.49 2.764 10.096s-.921 6.971-2.764 10.096c-1.763 3.045-4.167 5.449-7.212 7.212-3.125 1.843-6.49 2.764-10.096 2.764zm-5.048-8.834L34.976 25 19.952 13.702v22.536z"/>
</svg>
