<svg xmlns="http://www.w3.org/2000/svg" width="53" height="53" viewBox="0 0 53 53">
    <g fill="none" fill-rule="evenodd">
        <circle cx="26.5" cy="26.5" r="26.5" fill="#000"/>
        <path fill="#FFF" fill-rule="nonzero" stroke="#FFF" d="M29.575 34.284c.225 0 .394-.056.506-.168l6.75-7.425c.113-.113.169-.282.169-.507 0-.225-.056-.393-.169-.506-.056-.056-2.306-2.531-6.75-7.425-.337-.337-.675-.337-1.012 0-.338.338-.338.675 0 1.013l5.653 6.243H14.675c-.45 0-.675.225-.675.675 0 .45.225.675.675.675h20.047l-5.653 6.244c-.338.338-.338.675 0 1.013.112.112.281.168.506.168z"/>
    </g>
</svg>
